<svg width="36" height="42" viewBox="0 0 36 42" fill="none" xmlns="http://www.w3.org/2000/svg">
<path d="M18 42C15.5 42 13.1583 41.5333 10.975 40.6C8.79167 39.6667 6.88333 38.3833 5.25 36.75C3.61667 35.1167 2.33333 33.2083 1.4 31.025C0.466667 28.8417 0 26.5 0 24C0 21.5 0.466667 19.1583 1.4 16.975C2.33333 14.7917 3.61667 12.8833 5.25 11.25C6.88333 9.61666 8.79167 8.33333 10.975 7.39999C13.1583 6.46666 15.5 5.99999 18 5.99999H19.15L16.3 3.14999C16.0333 2.88333 15.9 2.54166 15.9 2.12499C15.9 1.70833 16.0275 1.36666 16.2825 1.09999C16.5608 0.833327 16.9 0.69166 17.3 0.674994C17.7 0.658327 18.0333 0.783327 18.3 1.04999L23.6 6.34999C23.9 6.64999 24.05 6.99999 24.05 7.39999C24.05 7.79999 23.9 8.14999 23.6 8.44999L18.35 13.7C18.05 14 17.7 14.15 17.3 14.15C16.9 14.15 16.5435 14 16.2305 13.7C15.9435 13.4 15.8 13.05 15.8 12.65C15.8 12.25 15.95 11.9 16.25 11.6L18.85 8.99999H17.75C13.5833 8.99999 10.0833 10.4553 7.25 13.366C4.41667 16.2767 3 19.8213 3 24C3 28.1787 4.45533 31.7233 7.366 34.634C10.2767 37.5447 13.8213 39 18 39C22.1787 39 25.7233 37.5447 28.634 34.634C31.5447 31.7233 33 28.1787 33 24C33 23.575 33.1447 23.2187 33.434 22.931C33.723 22.6437 34.0813 22.5 34.509 22.5C34.9363 22.5 35.2917 22.6437 35.575 22.931C35.8583 23.2187 36 23.575 36 24C36 26.5 35.5333 28.8417 34.6 31.025C33.6667 33.2083 32.3833 35.1167 30.75 36.75C29.1167 38.3833 27.2083 39.6667 25.025 40.6C22.8417 41.5333 20.5 42 18 42ZM12 19.9H10.5C10.1533 19.9 9.86667 19.7813 9.64 19.544C9.41333 19.307 9.3 19.007 9.3 18.644C9.3 18.2813 9.418 17.9917 9.654 17.775C9.89033 17.5583 10.189 17.45 10.55 17.45H13.3C13.6667 17.45 13.9583 17.5583 14.175 17.775C14.3917 17.9917 14.5 18.2833 14.5 18.65V29.25C14.5 29.611 14.3813 29.9097 14.144 30.146C13.907 30.382 13.607 30.5 13.244 30.5C12.8813 30.5 12.5833 30.382 12.35 30.146C12.1167 29.9097 12 29.611 12 29.25V19.9ZM19.35 30.5C18.7267 30.5 18.2042 30.2892 17.7825 29.8675C17.3608 29.4458 17.15 28.9233 17.15 28.3V19.65C17.15 19.0267 17.3608 18.5042 17.7825 18.0825C18.2042 17.6608 18.7267 17.45 19.35 17.45H23.5C24.1233 17.45 24.6458 17.6608 25.0675 18.0825C25.4892 18.5042 25.7 19.0267 25.7 19.65V28.3C25.7 28.9233 25.4892 29.4458 25.0675 29.8675C24.6458 30.2892 24.1233 30.5 23.5 30.5H19.35ZM19.65 28H23.2V19.9H19.65V28Z" fill="white"/>
</svg>
