<svg width="36" height="36" viewBox="0 0 36 36" fill="none" xmlns="http://www.w3.org/2000/svg">
<path d="M3 33H8.15C8.575 33 8.93133 33.1447 9.219 33.434C9.50633 33.723 9.65 34.0813 9.65 34.509C9.65 34.9363 9.50633 35.2917 9.219 35.575C8.93133 35.8583 8.575 36 8.15 36H1.5C1.075 36 0.718834 35.8562 0.4315 35.5685C0.143834 35.2812 0 34.925 0 34.5V27.85C0 27.425 0.144666 27.0687 0.434 26.781C0.723 26.4937 1.08133 26.35 1.509 26.35C1.93633 26.35 2.29167 26.4937 2.575 26.781C2.85833 27.0687 3 27.425 3 27.85V33ZM33 33V27.85C33 27.425 33.1447 27.0687 33.434 26.781C33.723 26.4937 34.0813 26.35 34.509 26.35C34.9363 26.35 35.2917 26.4937 35.575 26.781C35.8583 27.0687 36 27.425 36 27.85V34.5C36 34.925 35.8563 35.2812 35.569 35.5685C35.2813 35.8562 34.925 36 34.5 36H27.85C27.425 36 27.0688 35.8553 26.7815 35.566C26.4938 35.277 26.35 34.9187 26.35 34.491C26.35 34.0637 26.4938 33.7083 26.7815 33.425C27.0688 33.1417 27.425 33 27.85 33H33ZM3 3V8.15C3 8.575 2.85533 8.93117 2.566 9.2185C2.277 9.50617 1.91867 9.65 1.491 9.65C1.06367 9.65 0.708333 9.50617 0.425 9.2185C0.141667 8.93117 0 8.575 0 8.15V1.5C0 1.075 0.143834 0.718666 0.4315 0.431C0.718834 0.143666 1.075 0 1.5 0H8.15C8.575 0 8.93133 0.144666 9.219 0.434C9.50633 0.723 9.65 1.08133 9.65 1.509C9.65 1.93633 9.50633 2.29167 9.219 2.575C8.93133 2.85833 8.575 3 8.15 3H3ZM33 3H27.85C27.425 3 27.0688 2.85533 26.7815 2.566C26.4938 2.277 26.35 1.91867 26.35 1.491C26.35 1.06367 26.4938 0.708333 26.7815 0.425C27.0688 0.141667 27.425 0 27.85 0H34.5C34.925 0 35.2813 0.143666 35.569 0.431C35.8563 0.718666 36 1.075 36 1.5V8.15C36 8.575 35.8553 8.93117 35.566 9.2185C35.277 9.50617 34.9187 9.65 34.491 9.65C34.0637 9.65 33.7083 9.50617 33.425 9.2185C33.1417 8.93117 33 8.575 33 8.15V3Z" fill="white"/>
</svg>
