<svg width="36" height="42" viewBox="0 0 36 42" fill="none" xmlns="http://www.w3.org/2000/svg">
<path d="M12 19.9H10.5C10.1533 19.9 9.86667 19.7813 9.64 19.544C9.41333 19.307 9.3 19.007 9.3 18.644C9.3 18.2813 9.418 17.9917 9.654 17.775C9.89033 17.5583 10.189 17.45 10.55 17.45H13.3C13.6667 17.45 13.9583 17.5583 14.175 17.775C14.3917 17.9917 14.5 18.2833 14.5 18.65V29.25C14.5 29.611 14.3813 29.9097 14.144 30.146C13.907 30.382 13.607 30.5 13.244 30.5C12.8813 30.5 12.5833 30.382 12.35 30.146C12.1167 29.9097 12 29.611 12 29.25V19.9ZM19.35 30.5C18.7267 30.5 18.2042 30.2892 17.7825 29.8675C17.3608 29.4458 17.15 28.9233 17.15 28.3V19.65C17.15 19.0267 17.3608 18.5042 17.7825 18.0825C18.2042 17.6608 18.7267 17.45 19.35 17.45H23.5C24.1233 17.45 24.6458 17.6608 25.0675 18.0825C25.4892 18.5042 25.7 19.0267 25.7 19.65V28.3C25.7 28.9233 25.4892 29.4458 25.0675 29.8675C24.6458 30.2892 24.1233 30.5 23.5 30.5H19.35ZM19.65 28H23.2V19.9H19.65V28ZM18 42C15.5 42 13.1583 41.5333 10.975 40.6C8.79167 39.6667 6.88333 38.3833 5.25 36.75C3.61667 35.1167 2.33333 33.2083 1.4 31.025C0.466667 28.8417 0 26.5 0 24C0 23.575 0.144666 23.2187 0.434 22.931C0.723 22.6437 1.08133 22.5 1.509 22.5C1.93633 22.5 2.29167 22.6437 2.575 22.931C2.85833 23.2187 3 23.575 3 24C3 28.1787 4.45533 31.7233 7.366 34.634C10.2767 37.5447 13.8213 39 18 39C22.1787 39 25.7233 37.5447 28.634 34.634C31.5447 31.7233 33 28.1787 33 24C33 19.8213 31.5833 16.2767 28.75 13.366C25.9167 10.4553 22.4167 8.99999 18.25 8.99999H17.15L19.75 11.6C20.05 11.9 20.2 12.25 20.2 12.65C20.2 13.05 20.0565 13.4 19.7695 13.7C19.4565 14 19.1 14.15 18.7 14.15C18.3 14.15 17.95 14 17.65 13.7L12.4 8.44999C12.1 8.14999 11.95 7.79999 11.95 7.39999C11.95 6.99999 12.1 6.64999 12.4 6.34999L17.7 1.04999C17.9667 0.783327 18.3083 0.649994 18.725 0.649994C19.1417 0.649994 19.4892 0.783327 19.7675 1.04999C20.0225 1.31666 20.15 1.65833 20.15 2.07499C20.15 2.49166 20.0167 2.83333 19.75 3.09999L16.85 5.99999H18C20.5 5.99999 22.8417 6.46666 25.025 7.39999C27.2083 8.33333 29.1167 9.61666 30.75 11.25C32.3833 12.8833 33.6667 14.7917 34.6 16.975C35.5333 19.1583 36 21.5 36 24C36 26.5 35.5333 28.8417 34.6 31.025C33.6667 33.2083 32.3833 35.1167 30.75 36.75C29.1167 38.3833 27.2083 39.6667 25.025 40.6C22.8417 41.5333 20.5 42 18 42Z" fill="white"/>
</svg>
