<svg width="40" height="32" viewBox="0 0 40 32" fill="none" xmlns="http://www.w3.org/2000/svg">
<path d="M16.35 23.75C17.1167 24.5167 18.225 24.875 19.675 24.825C21.125 24.775 22.1833 24.2333 22.85 23.2L31.8 9.2C32.0333 8.83334 32.0083 8.50834 31.725 8.225C31.4417 7.94167 31.1167 7.91667 30.75 8.15L16.9 17.2C15.9 17.8667 15.3667 18.9333 15.3 20.4C15.2333 21.8667 15.5833 22.9833 16.35 23.75ZM19.9 0.0500031C21.4 0.0500031 22.975 0.250003 24.625 0.650003C26.275 1.05 27.9 1.7 29.5 2.6C29.8667 2.83334 30.1167 3.15517 30.25 3.5655C30.3833 3.97584 30.3167 4.3675 30.05 4.7405C29.7833 5.1135 29.4417 5.325 29.025 5.375C28.6083 5.425 28.2 5.35 27.8 5.15C26.4333 4.41667 25.0417 3.88334 23.625 3.55C22.2083 3.21667 20.9667 3.05 19.9 3.05C15.2173 3.05 11.23 4.72034 7.938 8.061C4.646 11.4013 3 15.4473 3 20.199C3 21.6997 3.20833 23.2167 3.625 24.75C4.04167 26.2833 4.63333 27.7 5.4 29H34.35C35.0833 27.8 35.6667 26.4 36.1 24.8C36.5333 23.2 36.75 21.6333 36.75 20.1C36.75 18.9333 36.6 17.675 36.3 16.325C36 14.975 35.5 13.6833 34.8 12.45C34.5667 12.0833 34.475 11.6833 34.525 11.25C34.575 10.8167 34.7833 10.4833 35.15 10.25C35.5047 9.98334 35.8933 9.91667 36.316 10.05C36.7387 10.1833 37.05 10.45 37.25 10.85C38.0167 12.35 38.6083 13.8417 39.025 15.325C39.4417 16.8083 39.6833 18.3 39.75 19.8C39.8167 21.8 39.6167 23.6833 39.15 25.45C38.6833 27.2167 38 28.85 37.1 30.35C36.7 31.1167 36.275 31.5833 35.825 31.75C35.375 31.9167 34.8167 32 34.15 32H5.6C5.03333 32 4.475 31.8583 3.925 31.575C3.375 31.2917 2.96667 30.8833 2.7 30.35C1.83333 28.75 1.16667 27.125 0.7 25.475C0.233333 23.825 0 22.0667 0 20.2C0 17.4333 0.525 14.825 1.575 12.375C2.625 9.925 4.05 7.79167 5.85 5.975C7.65 4.15834 9.76133 2.71667 12.184 1.65C14.6067 0.583336 17.1787 0.0500031 19.9 0.0500031Z" fill="white"/>
</svg>
