<svg width="22" height="20" viewBox="0 0 22 20" fill="none" xmlns="http://www.w3.org/2000/svg">
<path d="M14.175 5.3251C14.6583 5.80843 15.0125 6.35843 15.2375 6.9751C15.4625 7.59176 15.5417 8.2251 15.475 8.8751C15.475 9.1251 15.3833 9.3376 15.2 9.5126C15.0167 9.6876 14.8 9.7751 14.55 9.7751C14.3 9.7751 14.0875 9.6876 13.9125 9.5126C13.7375 9.3376 13.65 9.1251 13.65 8.8751C13.7333 8.44176 13.7083 8.0251 13.575 7.6251C13.4417 7.2251 13.2333 6.88343 12.95 6.6001C12.6667 6.31676 12.325 6.1001 11.925 5.9501C11.525 5.8001 11.1 5.76676 10.65 5.8501C10.4 5.8501 10.1875 5.75843 10.0125 5.5751C9.8375 5.39176 9.75 5.1751 9.75 4.9251C9.75 4.6751 9.8375 4.4626 10.0125 4.2876C10.1875 4.1126 10.4 4.0251 10.65 4.0251C11.2833 3.95843 11.9083 4.0376 12.525 4.2626C13.1417 4.4876 13.6917 4.84176 14.175 5.3251ZM11 3.0001C10.6833 3.0001 10.375 3.0126 10.075 3.0376C9.775 3.0626 9.475 3.10843 9.175 3.1751C8.89167 3.2251 8.6375 3.18343 8.4125 3.0501C8.1875 2.91676 8.03333 2.71676 7.95 2.4501C7.86667 2.18343 7.89583 1.9251 8.0375 1.6751C8.17917 1.4251 8.38333 1.2751 8.65 1.2251C9.03333 1.14176 9.42083 1.08343 9.8125 1.0501C10.2042 1.01676 10.6 1.0001 11 1.0001C13.2833 1.0001 15.3708 1.6001 17.2625 2.8001C19.1542 4.0001 20.6 5.61676 21.6 7.6501C21.6667 7.78343 21.7167 7.92093 21.75 8.0626C21.7833 8.20426 21.8 8.3501 21.8 8.5001C21.8 8.6501 21.7875 8.79593 21.7625 8.9376C21.7375 9.07926 21.6917 9.21676 21.625 9.3501C21.325 10.0168 20.9542 10.6418 20.5125 11.2251C20.0708 11.8084 19.5833 12.3418 19.05 12.8251C18.85 13.0084 18.6167 13.0834 18.35 13.0501C18.0833 13.0168 17.8667 12.8834 17.7 12.6501C17.5333 12.4168 17.4625 12.1626 17.4875 11.8876C17.5125 11.6126 17.625 11.3834 17.825 11.2001C18.225 10.8168 18.5917 10.4001 18.925 9.9501C19.2583 9.5001 19.55 9.01676 19.8 8.5001C18.9667 6.81676 17.7625 5.47926 16.1875 4.4876C14.6125 3.49593 12.8833 3.0001 11 3.0001ZM11 16.0001C8.76667 16.0001 6.725 15.3959 4.875 14.1876C3.025 12.9793 1.56667 11.3918 0.5 9.4251C0.416667 9.29176 0.354167 9.14593 0.3125 8.9876C0.270833 8.82926 0.25 8.66677 0.25 8.5001C0.25 8.33343 0.266667 8.1751 0.3 8.0251C0.333333 7.8751 0.391667 7.7251 0.475 7.5751C0.808333 6.90843 1.19583 6.27093 1.6375 5.6626C2.07917 5.05426 2.58333 4.5001 3.15 4.0001L1.075 1.9001C0.891667 1.7001 0.804167 1.4626 0.8125 1.1876C0.820833 0.912598 0.916667 0.683431 1.1 0.500098C1.28333 0.316764 1.51667 0.225098 1.8 0.225098C2.08333 0.225098 2.31667 0.316764 2.5 0.500098L19.5 17.5001C19.6833 17.6834 19.7792 17.9126 19.7875 18.1876C19.7958 18.4626 19.7 18.7001 19.5 18.9001C19.3167 19.0834 19.0833 19.1751 18.8 19.1751C18.5167 19.1751 18.2833 19.0834 18.1 18.9001L14.6 15.4501C14.0167 15.6334 13.425 15.7709 12.825 15.8626C12.225 15.9543 11.6167 16.0001 11 16.0001ZM4.55 5.4001C4.06667 5.83343 3.625 6.30843 3.225 6.8251C2.825 7.34176 2.48333 7.9001 2.2 8.5001C3.03333 10.1834 4.2375 11.5209 5.8125 12.5126C7.3875 13.5043 9.11667 14.0001 11 14.0001C11.3333 14.0001 11.6583 13.9793 11.975 13.9376C12.2917 13.8959 12.6167 13.8501 12.95 13.8001L12.05 12.8501C11.8667 12.9001 11.6917 12.9376 11.525 12.9626C11.3583 12.9876 11.1833 13.0001 11 13.0001C9.75 13.0001 8.6875 12.5626 7.8125 11.6876C6.9375 10.8126 6.5 9.7501 6.5 8.5001C6.5 8.31676 6.5125 8.14176 6.5375 7.9751C6.5625 7.80843 6.6 7.63343 6.65 7.4501L4.55 5.4001Z" fill="#2E3EDF"/>
</svg>
