<svg width="36" height="34" viewBox="0 0 36 34" fill="none" xmlns="http://www.w3.org/2000/svg">
<path d="M33 16.95C33 13.8167 32.125 11 30.375 8.49999C28.625 5.99999 26.3333 4.18333 23.5 3.04999C23.1 2.88333 22.8167 2.61666 22.65 2.24999C22.4833 1.88333 22.4833 1.51666 22.65 1.14999C22.8167 0.749993 23.1083 0.474993 23.525 0.324993C23.9417 0.174993 24.3667 0.183327 24.8 0.349993C28.1667 1.71666 30.875 3.89999 32.925 6.89999C34.975 9.89999 36 13.25 36 16.95C36 20.65 34.975 24 32.925 27C30.875 30 28.1667 32.1833 24.8 33.55C24.3667 33.7167 23.9417 33.725 23.525 33.575C23.1083 33.425 22.8167 33.15 22.65 32.75C22.4833 32.3833 22.4833 32.0167 22.65 31.65C22.8167 31.2833 23.1 31.0167 23.5 30.85C26.3333 29.7167 28.625 27.9 30.375 25.4C32.125 22.9 33 20.0833 33 16.95ZM8 23H1.5C1.06667 23 0.708333 22.8583 0.425 22.575C0.141667 22.2917 0 21.9333 0 21.5V12.5C0 12.0667 0.141667 11.7083 0.425 11.425C0.708333 11.1417 1.06667 11 1.5 11H8L15.45 3.54999C15.9167 3.08333 16.4583 2.97499 17.075 3.22499C17.6917 3.47499 18 3.93333 18 4.59999V29.4C18 30.0667 17.6917 30.525 17.075 30.775C16.4583 31.025 15.9167 30.9167 15.45 30.45L8 23ZM27 17C27 18.7333 26.5667 20.3 25.7 21.7C24.8333 23.1 23.6167 24.1667 22.05 24.9C21.7833 25.0333 21.5417 25.0167 21.325 24.85C21.1083 24.6833 21 24.4667 21 24.2V9.74999C21 9.48333 21.1083 9.26666 21.325 9.09999C21.5417 8.93333 21.7833 8.91666 22.05 9.04999C23.6167 9.78333 24.8333 10.8667 25.7 12.3C26.5667 13.7333 27 15.3 27 17ZM15 8.59999L9.35 14H3V20H9.35L15 25.45V8.59999Z" fill="white"/>
</svg>
